<svg xmlns="http://www.w3.org/2000/svg" viewBox="0 0 180 178" width="14" height="14"><defs><clipPath clipPathUnits="userSpaceOnUse" id="cp1"><path d="M0 1h180v177H0z"/></clipPath></defs><style></style><g id="Page 1" clip-path="url(#cp1)"><path id="Path 1" d="M1.01 54.2H39.5V178H1.01V54.2zm39.75-34.43c0 10.63-7.85 19.24-20.76 19.24-12.15 0-20-8.61-20-19.24C0 8.88 8.1.52 20.5.52c12.41 0 20.01 8.36 20.26 19.25zm21.76 73.92c0-15.44-.5-28.35-1-39.49h33.41l1.78 17.21h.76c5.06-8.1 17.46-20 38.23-20 25.31 0 44.3 16.97 44.3 53.42V178h-38.48v-68.61c0-15.95-5.57-26.83-19.5-26.83-10.63 0-16.96 7.34-19.74 14.42-1.02 2.53-1.27 6.08-1.27 9.63V178H62.52V93.69z" fill="#666d89"/></g></svg>