<svg xmlns="http://www.w3.org/2000/svg" viewBox="0 0 180 177" width="14" height="14"><defs><clipPath clipPathUnits="userSpaceOnUse" id="cp1"><path d="M0 0h179v176H0z"/></clipPath></defs><style></style><g id="Page 1" clip-path="url(#cp1)"><path id="Path 1" fill-rule="evenodd" d="M179.22 68.82v19h-30v30h-19v-30h-30v-19h30v-30h19v30h30zM56.01 0H102v1c0 5.15-9.23 6.13-15.54 6.99-2.12.29-6.41.74-7.63 1.37 11.64 6.2 13.53 15.98 13.53 30.56 0 16.58-6.49 25.35-13.38 31.51-4.25 3.81-7.62 6.82-7.62 10.82 0 3.93 4.61 7.97 9.94 12.64 8.73 7.68 20.7 18.18 20.7 35.83 0 18.27-7.86 31.34-23.34 38.85-11.93 5.8-24.78 6.43-29.75 6.43-.95 0-1.5-.02-1.59-.02 0 0-.35.01-.96.01-7.74 0-46.36-1.79-46.36-36.96 0-34.56 42.05-37.25 54.94-37.25h.33c-7.44-9.93-5.9-19.96-5.9-19.96-.66.04-1.6.08-2.78.08-4.86 0-14.21-.77-22.26-5.96C14.5 69.61 9.51 58.82 9.51 43.89 9.51 1.72 55.55.01 56.01 0zm-1.58 110.79c-1.03 0-2.06.04-3.1.1-8.8.65-16.89 3.94-22.78 9.28-5.81 5.27-8.78 11.89-8.36 18.63.88 14.05 15.99 22.31 34.34 20.97 18.06-1.31 30.09-11.69 29.21-25.76-.83-13.24-12.33-23.22-29.31-23.22zm-7.2-98.32c-1.3 0-2.6.18-3.85.53-5.2 1.47-9.33 5.81-11.63 12.25-2.34 6.55-2.5 13.35-.47 21.14 3.65 13.86 13.51 23.92 23.45 23.92 1.31 0 2.6-.18 3.85-.53 10.85-3.06 17.67-19.65 13.15-35.52-4.78-16.81-12.5-21.79-24.5-21.79z" fill="#666d89"/></g></svg>