<svg xmlns="http://www.w3.org/2000/svg" viewBox="0 0 184 150" width="14" height="12"><defs><clipPath clipPathUnits="userSpaceOnUse" id="cp1"><path d="M0 0h184v150H0z"/></clipPath></defs><style></style><g id="Page 1" clip-path="url(#cp1)"><path id="Path 1" d="M184 18.16a75.203 75.203 0 01-21.68 5.95c7.79-4.67 13.78-12.07 16.6-20.89a75.543 75.543 0 01-23.97 9.16C148.06 5.05 138.25.46 127.39.46c-20.85 0-37.75 16.91-37.75 37.75 0 2.96.33 5.84.98 8.6-31.37-1.57-59.2-16.6-77.81-39.44A37.58 37.58 0 007.7 26.35c0 13.1 6.66 24.65 16.79 31.42a37.491 37.491 0 01-17.1-4.72v.48c0 18.29 13.01 33.54 30.28 37.01-3.17.86-6.5 1.33-9.95 1.33-2.43 0-4.79-.24-7.1-.68 4.81 15 18.75 25.91 35.27 26.21-12.93 10.13-29.2 16.17-46.89 16.17-3.04 0-6.05-.18-9-.54C16.7 143.75 36.54 150 57.87 150c69.43 0 107.4-57.53 107.4-107.41 0-1.63-.03-3.26-.11-4.89A76.434 76.434 0 00184 18.16z" fill="#666d89"/></g></svg>