<svg viewBox="0 0 60 60" xmlns="http://www.w3.org/2000/svg" fill-rule="evenodd" clip-rule="evenodd" stroke-linejoin="round" stroke-miterlimit="2"><path d="M30.192.001l.193.001.193.003.193.005.192.005.194.007.192.007.19.01.192.01.191.012.191.012.19.014.19.016.19.016.19.017.19.019.188.02.188.021.189.022.188.023.187.024.187.026.187.027.186.028.186.03.185.029.185.031.185.033.184.033.184.035.185.036.183.037.183.038.182.04.182.04.182.04.18.044.182.043.18.044.18.046.179.047.179.048.179.05.177.049.178.05.177.053.177.054.176.053.176.056.176.056.175.058.174.058.174.06.174.06.172.062.173.062.172.064.172.064.17.067.17.067.171.067.17.069.168.07.169.07.168.072.167.073.167.073.167.075.166.075.164.077.165.078.165.078.164.08.162.08.163.081.162.083.161.083.161.085.16.085.16.086.159.087.159.088.157.089.158.09.156.09.157.092.156.093.154.093.155.095.153.096.153.096.152.097.153.098.15.1.15.099.151.1.15.102.148.103.149.103.146.104.148.105.145.106.145.107.146.107.143.108.144.11.143.11.141.11.142.113.141.112.14.114.139.114.138.115.138.116.138.117.136.117.136.119.134.119.134.12.135.12.132.122.132.122.132.123.13.124.13.124.13.126.128.126.128.127.126.128.126.128.126.129.124.13.124.13.123.132.122.133.122.132.12.134.12.134.12.135.118.136.117.136.117.137.116.139.115.138.114.14.114.139.113.141.112.141.11.142.11.143.11.144.108.143.108.145.106.146.106.145.105.148.105.146.102.149.103.148.102.15.1.15.1.15.099.151.098.153.097.152.097.153.095.153.095.155.093.154.093.156.091.157.09.156.091.158.089.157.088.16.087.158.086.16.086.16.084.16.083.162.083.162.081.163.08.163.08.163.078.165.078.165.077.165.075.165.075.167.073.167.073.168.072.167.07.17.07.168.07.169.066.17.067.17.066.171.064.172.065.172.062.173.062.173.06.174.06.174.058.174.058.175.055.175.056.176.054.176.054.177.052.177.05.178.05.178.05.18.048.178.047.18.046.18.044.18.043.18.043.181.042.182.04.182.039.182.038.183.037.183.036.184.034.184.034.185.033.185.031.185.03.185.029.186.027.186.028.187.025.187.025.187.023.189.021.188.022.188.02.189.018.19.018.188.016.19.015.19.015.19.012.192.01.191.012.191.01.191.006.193.007.193.006.192.005.193.003.194v.193l.002.194-.001.194-.001.193-.003.194-.005.193-.006.192-.007.193-.007.193-.009.19-.011.192-.011.191-.012.191-.015.19-.015.19-.016.19-.018.19-.018.19-.02.188-.022.188-.02.189-.024.188-.025.187-.025.187-.028.187-.027.186-.03.186-.029.185-.031.185-.033.185-.034.185-.034.184-.036.184-.037.183-.038.183-.04.182-.04.182-.041.182-.043.18-.043.182-.044.18-.046.18-.047.179-.049.179-.048.179-.05.178-.051.178-.052.177-.054.177-.054.176-.056.176-.055.176-.058.174-.058.174-.06.174-.06.174-.062.173-.062.173-.065.172-.064.172-.066.17-.067.17-.067.171-.069.169-.07.169-.07.169-.072.167-.073.168-.073.167-.075.167-.075.165-.077.165-.078.165-.078.165-.08.163-.08.163-.081.163-.083.162-.083.161-.084.161-.086.16-.086.16-.087.159-.088.159-.089.157-.09.158-.09.156-.092.157-.093.156-.093.154-.095.155-.095.153-.097.153-.097.152-.098.153-.099.15-.1.151-.1.15-.102.15-.103.148-.102.149-.105.146-.105.148-.106.145-.106.146-.108.145-.108.144-.11.143-.11.143-.11.142-.112.141-.113.141-.114.14-.114.139-.115.138-.116.139-.117.137-.117.136-.119.136-.119.135-.12.134-.12.134-.122.132-.122.133-.123.132-.124.13-.124.13-.126.13-.126.127-.126.129-.128.126-.128.126-.13.126-.13.124-.13.124-.132.123-.132.122-.132.122-.135.12-.134.12-.134.12-.136.118-.136.117-.138.117-.138.116-.138.115-.14.114-.139.114-.141.112-.142.112-.141.111-.143.11-.144.11-.143.108-.146.107-.145.107-.145.106-.148.105-.146.104-.149.103-.148.103-.15.102-.15.1-.15.1-.151.099-.153.098-.152.097-.153.096-.153.096-.155.095-.154.093-.156.093-.157.091-.156.09-.158.091-.157.089-.159.088-.159.087-.16.086-.16.086-.16.084-.162.083-.162.083-.163.081-.162.08-.164.08-.165.078-.165.078-.164.077-.166.075-.167.075-.167.073-.167.074-.168.07-.169.072-.169.07-.169.068-.17.067-.17.067-.171.067-.172.064-.172.064-.173.062-.172.062-.174.06-.174.06-.174.058-.175.058-.176.056-.176.056-.176.053-.177.054-.177.052-.178.051-.177.05-.18.049-.178.049-.18.046-.18.046-.18.044-.18.044-.181.042-.182.042-.182.04-.182.04-.183.037-.183.038-.185.035-.184.035-.184.033-.185.033-.185.031-.185.03-.186.03-.186.027-.187.027-.187.026-.187.024-.188.023-.189.022-.188.021-.189.02-.189.019-.19.017-.19.016-.19.016-.19.014-.19.012-.192.011-.191.011-.191.01-.192.007-.194.007-.192.005-.193.005-.193.003-.193.001-.195.001-.194-.001-.193-.001-.193-.003-.193-.005-.193-.005-.193-.007-.192-.007-.191-.01-.191-.01-.192-.012-.19-.012-.19-.014-.191-.016-.19-.016-.19-.017-.188-.019-.19-.02-.188-.021-.188-.022-.188-.023-.187-.024-.187-.026-.187-.027-.186-.028-.186-.03-.185-.029-.186-.031-.185-.033-.184-.033-.184-.035-.184-.035-.183-.038-.183-.038-.182-.04-.182-.04-.182-.04-.18-.043-.182-.044-.18-.044-.18-.046-.179-.046-.179-.05-.179-.048-.178-.05-.178-.05-.177-.053-.177-.054-.175-.053-.176-.056-.176-.056-.175-.058-.174-.058-.174-.06-.174-.06-.173-.062-.173-.062-.171-.064-.172-.064-.171-.067-.17-.067-.17-.067-.17-.069-.168-.07-.17-.07-.167-.071-.168-.074-.166-.073-.167-.075-.166-.075-.165-.077-.164-.078-.165-.078-.164-.08-.163-.08-.162-.081-.162-.083-.162-.083-.16-.084-.161-.086-.16-.086-.158-.087-.159-.088-.158-.089-.157-.09-.157-.09-.156-.092-.156-.093-.154-.093-.155-.095-.154-.096-.152-.096-.153-.097-.152-.098-.15-.1-.151-.099-.15-.1-.15-.102-.149-.103-.148-.103-.146-.104-.148-.105-.145-.106-.146-.107-.145-.107-.144-.108-.143-.11-.143-.11-.142-.11-.141-.113-.141-.112-.14-.114-.139-.114-.138-.115-.139-.116-.137-.117-.136-.117-.136-.119-.135-.119-.134-.12-.134-.12-.132-.122-.132-.122-.133-.123-.13-.124-.13-.124-.129-.126-.128-.126-.128-.126-.126-.129-.126-.128-.127-.129-.124-.13-.124-.13-.123-.132-.122-.133-.122-.132-.12-.134-.12-.134-.119-.135-.119-.136-.117-.136-.117-.137-.115-.139-.115-.138-.114-.14-.114-.139-.113-.141-.112-.141-.11-.142-.11-.143-.11-.143-.108-.144-.108-.145-.107-.146-.105-.145-.105-.148-.105-.146-.103-.149-.102-.148-.102-.15-.1-.15-.1-.15-.099-.151-.099-.153-.096-.152-.097-.153-.095-.153-.095-.155-.094-.154-.092-.156-.092-.157-.09-.156-.09-.158-.089-.157-.088-.16-.087-.158-.086-.16-.086-.16-.084-.16-.084-.162-.082-.162-.081-.163-.08-.163-.08-.163-.078-.165-.079-.165-.076-.165-.075-.165-.075-.167-.073-.167-.074-.168-.07-.167-.072-.17-.07-.168-.068-.169-.067-.17-.068-.17-.066-.171-.064-.172-.064-.172-.062-.173-.062-.173-.06-.174-.06-.174-.058-.174-.058-.174-.056-.176-.056-.176-.054-.176-.053-.177-.052-.177-.051-.178-.05-.178-.049-.18-.049-.178-.046-.18-.046-.18-.044-.18-.044-.18-.042-.181-.042-.182-.04-.182-.04-.182-.037-.183-.038-.183-.035-.184-.035-.184-.033-.185-.033-.185-.031-.185-.03-.185-.03-.186-.027-.186-.027-.187-.026-.187-.024-.187-.023-.188-.022-.189-.021-.188-.02-.189-.019-.189-.017-.19-.016-.19-.016-.19-.014-.19-.012-.19-.011-.192-.011-.191-.01-.191-.007-.193-.007-.193-.005-.192-.005-.193-.003-.194-.001-.193L0 30l.001-.194.001-.193.003-.194.005-.193.005-.192.007-.193.007-.193.01-.19.01-.192.012-.191.012-.191.014-.19.016-.19.016-.19.017-.19.019-.19.02-.188.021-.188.022-.188.023-.189.024-.187.026-.187.027-.187.028-.186.03-.186.029-.185.031-.185.033-.185.033-.185.035-.184.035-.184.038-.183.038-.183.04-.182.04-.182.04-.182.043-.18.044-.182.044-.18.046-.18.046-.179.05-.179.048-.179.05-.178.05-.178.053-.177.053-.177.054-.176.056-.176.056-.175.058-.175.058-.174.06-.174.06-.174.062-.173.062-.173.064-.172.064-.172.066-.17.068-.17.067-.171.069-.169.069-.169.071-.169.071-.167.074-.168.073-.167.075-.167.075-.165.076-.165.079-.165.078-.165.08-.163.08-.163.081-.163.082-.162.084-.161.084-.16.086-.162.086-.16.087-.158.088-.159.088-.157.09-.158.091-.156.092-.157.092-.156.094-.154.095-.155.095-.153.097-.153.096-.152.099-.153.099-.15.1-.151.1-.15.102-.15.102-.148.103-.149.105-.146.105-.148.105-.145.107-.146.108-.145.108-.143.11-.144.11-.143.11-.142.112-.141.113-.141.114-.14.114-.139.115-.138.115-.139.117-.137.117-.136.12-.136.118-.135.12-.134.12-.134.122-.132.122-.133.123-.132.124-.13.124-.13.127-.13.126-.127.126-.128.128-.127.128-.126.13-.126.13-.124.13-.124.132-.123.132-.122.132-.122.134-.12.134-.12.135-.119.136-.119.136-.117.137-.117.139-.116.138-.115.14-.114.139-.114.141-.112.141-.112.142-.111.143-.11.143-.11.144-.108.145-.107.146-.107.145-.106.148-.105.146-.104.148-.103.149-.103.15-.102.15-.1.15-.1.15-.099.153-.098.153-.097.152-.096.154-.096.155-.095.154-.093.156-.093.156-.091.157-.09.157-.091.158-.089.159-.088.158-.087.16-.086.16-.085.161-.085.162-.083.162-.083.162-.081.163-.08.164-.08.165-.078.164-.078.165-.077.166-.075.167-.075.166-.073.168-.073.168-.072.169-.07.168-.07.17-.07.17-.066.17-.067.17-.067.173-.064.171-.064.173-.062.173-.062.174-.06.174-.06.174-.058.175-.058.176-.056.176-.056.175-.053.177-.054.177-.052.178-.051.178-.05.18-.049.178-.048.18-.047.18-.046.18-.044.18-.043.181-.043.182-.042.182-.04.182-.04.183-.037.183-.037.184-.036.184-.035.184-.033.185-.033.186-.031.185-.03.186-.03.186-.027.187-.027.187-.026.187-.024.188-.023.188-.022.188-.021.19-.02.189-.019.189-.017.19-.016.19-.016.19-.014.191-.012.192-.011.19-.011.192-.01.192-.007.193-.007.193-.005.193-.005.193-.003.193-.001.194-.001.195.001zm-.376 2.033l-.18.002-.18.003-.18.004-.18.005-.18.006-.18.007-.179.01-.177.009-.18.01-.177.012-.177.013-.178.014-.177.016-.177.016-.176.017-.176.019-.176.019-.175.021-.176.022-.174.023-.174.023-.174.026-.174.025-.173.028-.173.027-.173.03-.172.03-.172.032-.171.031-.171.034-.171.034-.17.036-.17.037-.17.037-.168.039-.17.038-.168.041-.168.042-.167.043-.167.043-.167.045-.167.046-.166.047-.165.046-.165.05-.165.049-.164.05-.164.052-.164.053-.163.053-.162.054-.162.056-.162.056-.16.058-.161.058-.16.06-.16.06-.16.061-.159.062-.158.063-.158.064-.157.065-.157.067-.157.066-.156.068-.156.068-.154.07-.155.07-.154.071-.154.073-.153.073-.152.074-.152.075-.151.077-.152.076-.15.077-.15.08-.15.079-.148.08-.148.082-.148.08-.147.084-.147.084-.146.085-.145.086-.146.086-.144.086-.143.089-.144.088-.143.09-.142.091-.142.09-.14.093-.14.094-.14.094-.14.094-.138.096-.139.096-.137.097-.137.099-.135.098-.137.1-.135.1-.134.101-.133.102-.134.103L12.74 8l-.132.104-.131.105-.13.106-.13.106-.13.108-.128.108-.128.109-.127.11-.127.11-.126.111-.125.112-.124.112-.124.114-.123.114-.123.115-.122.115-.121.116-.12.117-.12.118-.12.119-.118.118-.117.12-.117.12-.117.122-.115.122-.115.122-.114.123-.114.124-.112.125-.111.125-.111.126-.111.126-.11.127-.109.128-.108.13-.107.129-.106.13-.106.13-.106.131-.103.132-.104.133-.103.133-.101.133-.102.134-.1.135-.1.136-.098.136-.099.137-.096.138-.097.138-.096.138-.094.14-.094.139-.093.14-.092.142-.091.14-.09.143-.091.143-.089.143-.088.144-.087.145-.086.144-.085.147-.086.145-.083.147-.083.147-.082.148-.081.148-.08.15-.08.149-.078.15-.079.15-.076.15-.076.152-.075.153-.074.152-.073.153-.073.153-.071.155-.07.154-.07.155-.069.155-.068.156-.066.157-.066.157-.065.158-.064.158-.063.158-.062.159-.061.16-.06.16-.06.159-.058.16-.058.162-.056.162-.056.162-.054.162-.054.163-.052.164-.051.163-.051.165-.05.165-.048.165-.048.165-.046.166-.046.166-.045.167-.044.168-.042.167-.041.168-.04.168-.04.169-.039.17-.038.17-.036.17-.036.17-.034.17-.033.17-.033.173-.031.172-.03.171-.029.173-.028.173-.028.173-.025.174-.026.174-.023.175-.024.174-.02.176-.021.174-.02.176-.019.176-.017.176-.016.177-.016.177-.014.178-.012.177-.012.178-.012.18-.009.177-.008.179-.008.179-.006.18-.005.18-.004.18-.003.18-.001.181-.001.181v.181l.002.181.003.18.004.18.005.18.006.18.008.179.008.179.01.178.01.179.013.178.012.177.014.178.016.177.016.177.017.176.018.176.02.176.021.174.021.176.024.174.023.175.026.174.025.174.028.173.028.173.028.173.031.172.031.171.033.172.033.171.034.17.036.17.036.17.038.17.039.17.04.17.04.167.04.168.043.167.044.168.045.167.046.166.046.166.048.165.048.165.05.165.05.165.052.163.052.164.054.163.054.162.056.162.056.162.058.162.058.16.06.16.06.16.06.16.063.158.063.158.064.158.065.158.066.157.066.157.068.156.07.155.069.155.07.154.071.155.073.153.073.153.074.153.075.152.076.152.076.15.079.15.078.15.08.15.08.15.081.147.082.148.083.147.083.147.086.145.085.147.086.144.087.145.088.144.089.143.09.143.09.142.092.142.092.14.093.141.094.14.094.139.096.138.097.138.096.138.099.137.099.136.1.136.099.135.102.134.101.133.103.133.104.133.103.132.106.131.106.13.106.13.107.13.108.129.109.128.11.127.11.126.112.126.111.125.112.125.114.124.114.123.115.123.115.122.117.12.117.122.117.119.119.119.119.119.12.117.12.117.12.116.123.115.123.115.123.114.124.114.124.112.125.112.126.112.127.11.127.11.128.108.128.108.13.108.13.106.13.106.131.105.132.104.132.103.134.103.133.102.135.102.134.1.137.099.135.098.137.1.137.096.139.096.138.096.14.095.14.093.14.094.14.092.142.09.142.091.143.09.144.09.143.088.144.087.146.086.145.085.146.085.147.084.147.083.148.082.148.08.149.081.15.08.149.079.15.077.152.076.151.077.152.075.152.074.153.073.154.073.154.07.155.071.154.07.156.068.156.068.157.067.157.066.157.065.158.064.158.063.16.062.159.06.16.062.16.059.16.058.161.058.162.056.162.056.162.054.163.053.164.053.164.051.164.051.165.05.165.049.165.046.166.047.167.046.167.045.167.043.167.043.168.042.169.04.169.04.169.038.17.037.17.037.169.036.17.034.172.034.171.031.172.032.172.03.173.03.173.027.173.028.174.025.174.026.174.023.174.023.176.022.175.021.176.02.176.018.176.017.177.016.177.016.178.014.177.013.178.011.179.011.177.01.18.009.178.007.18.006.18.005.18.004.18.003.181.002h.362l.181-.002.18-.003.18-.004.18-.005.18-.006.18-.007.178-.01.178-.009.18-.01.177-.012.177-.013.178-.014.177-.016.177-.016.176-.017.176-.019.176-.019.175-.021.175-.022.174-.023.175-.023.174-.026.174-.025.173-.028.173-.027.173-.03.171-.03.172-.032.172-.031.171-.034.17-.034.17-.036.17-.037.17-.037.169-.039.169-.038.169-.041.167-.042.168-.043.167-.043.167-.045.166-.046.166-.047.166-.046.165-.05.164-.049.165-.05.164-.052.164-.053.162-.053.163-.054.162-.056.161-.056.161-.058.16-.058.161-.06.16-.06.16-.061.158-.062.159-.063.158-.064.157-.065.157-.065.156-.068.157-.068.156-.068.154-.07.155-.07.154-.071.154-.073.152-.073.153-.074.151-.075.152-.077.151-.076.15-.077.15-.08.15-.079.148-.08.149-.081.148-.082.147-.083.147-.084.145-.085.146-.085.145-.086.145-.087.143-.089.143-.088.144-.09.142-.091.142-.09.14-.093.14-.094.14-.093.14-.095.138-.096.138-.096.138-.097.137-.099.135-.098.136-.1.135-.1.135-.101.133-.102.133-.103.133-.103.132-.104.13-.105.131-.106.13-.106.13-.108.127-.108.129-.109.127-.11.127-.11.126-.111.125-.112.124-.112.124-.114.123-.114.123-.115.122-.115.121-.116.12-.117.12-.117.12-.12.118-.118.117-.12.117-.12.117-.121.115-.122.115-.123.114-.123.114-.124.111-.125.112-.125.111-.126.11-.126.11-.127.11-.128.107-.13.108-.129.106-.13.106-.13.105-.131.104-.132.104-.133.103-.133.101-.133.102-.134.1-.135.1-.136.098-.136.098-.137.097-.138.097-.138.095-.138.095-.14.093-.139.094-.14.091-.141.092-.142.09-.142.09-.143.09-.143.088-.144.086-.145.087-.144.085-.147.086-.145.083-.147.082-.147.083-.148.081-.148.08-.15.08-.149.078-.15.078-.15.077-.15.076-.152.075-.152.073-.153.073-.153.074-.153.07-.155.071-.154.07-.155.068-.155.068-.156.067-.157.066-.157.065-.158.064-.158.063-.158.062-.159.06-.16.06-.16.06-.159.059-.16.058-.162.056-.162.056-.162.054-.162.053-.163.052-.164.052-.163.051-.165.05-.165.048-.165.047-.165.047-.166.046-.166.045-.167.043-.168.043-.167.04-.168.041-.168.04-.169.039-.17.037-.17.037-.17.036-.17.034-.17.033-.17.032-.173.032-.171.03-.172.029-.173.028-.173.028-.173.025-.174.026-.174.023-.175.023-.174.022-.176.02-.174.02-.176.019-.176.017-.176.016-.177.015-.177.015-.178.012-.177.012-.178.011-.179.01-.178.008-.179.008-.179.006-.18.005-.18.004-.18.003-.18.001-.181.001-.181-.001-.181-.001-.181-.003-.18-.004-.18-.005-.18-.006-.18-.008-.179-.009-.179-.009-.178-.01-.179-.013-.178-.012-.177-.015-.178-.015-.177-.016-.177-.017-.176-.019-.176-.02-.176-.02-.174-.022-.176-.023-.174-.023-.175-.026-.174-.025-.174-.028-.173-.028-.173-.029-.173-.03-.171-.032-.172-.032-.172-.033-.171-.034-.17-.036-.17-.037-.17-.037-.17-.039-.17-.04-.169-.04-.168-.04-.168-.044-.167-.043-.168-.045-.167-.046-.166-.047-.166-.047-.165-.048-.165-.05-.165-.05-.165-.053-.163-.052-.164-.053-.163-.054-.162-.056-.162-.056-.162-.058-.161-.058-.161-.06-.16-.06-.16-.061-.16-.062-.158-.063-.158-.064-.158-.065-.158-.066-.157-.067-.157-.068-.156-.069-.155-.069-.155-.07-.154-.071-.155-.074-.153-.073-.153-.073-.152-.075-.153-.076-.152-.077-.15-.078-.15-.078-.15-.08-.15-.08-.15-.081-.147-.083-.148-.082-.147-.083-.147-.086-.145-.085-.147-.087-.144-.086-.145-.089-.144-.088-.143-.09-.143-.091-.142-.092-.141-.091-.142-.094-.14-.093-.14-.095-.139-.095-.138-.097-.138-.097-.138-.098-.137-.099-.136-.1-.136-.1-.135-.1-.134-.102-.133-.103-.133-.104-.133-.104-.132-.105-.131-.106-.13-.106-.13-.108-.13-.107-.129-.11-.128-.11-.127-.11-.126-.11-.126-.113-.125-.111-.125-.114-.124-.114-.123-.115-.122-.115-.122-.117-.122-.117-.12-.117-.12-.119-.118-.119-.12-.12-.117-.12-.117-.12-.116-.123-.115-.123-.115-.123-.114-.124-.114-.124-.112-.125-.112-.126-.112-.127-.11-.127-.11-.129-.108-.128-.108-.129-.108-.13-.106-.13-.106-.131-.105-.132-.104-.133-.103-.133-.103-.133-.102-.134-.101-.136-.1-.136-.1-.135-.098-.137-.1-.138-.096-.138-.096-.138-.096-.14-.094-.14-.094-.14-.094-.14-.092-.142-.09-.142-.092-.144-.09-.143-.088-.143-.089-.145-.086-.145-.086-.146-.086-.145-.085-.147-.084-.147-.083-.148-.081-.149-.082-.148-.08-.15-.08-.15-.079-.15-.077-.151-.076-.152-.077-.151-.075-.153-.074-.152-.073-.154-.073-.154-.07-.155-.07-.154-.071-.156-.068-.157-.068-.156-.066-.157-.067-.157-.065-.158-.064-.159-.063-.158-.062-.16-.06-.16-.062-.16-.059-.161-.058-.16-.058-.162-.056-.162-.056-.163-.054-.162-.053-.164-.053-.164-.051-.165-.051-.164-.05-.165-.049-.166-.046-.166-.047-.166-.046-.167-.045-.167-.043-.168-.043-.167-.042-.17-.04-.168-.04-.169-.038-.17-.037-.17-.037-.17-.036-.17-.034-.17-.034-.173-.031-.172-.032-.171-.03-.173-.03-.173-.027-.173-.028-.174-.025-.174-.026-.175-.023-.174-.023-.175-.022-.175-.021-.176-.02-.176-.018-.176-.017-.177-.016-.177-.016-.178-.014-.177-.013-.178-.011-.179-.011-.178-.01-.179-.009-.179-.007-.18-.006-.18-.005-.18-.004-.18-.003-.18-.002h-.362z" fill="#666d89"/><path d="M43.192 18.792C39.583 15.245 33.763 15.116 30 18.5c-3.761-3.385-9.582-3.258-13.192.288a9.403 9.403 0 000 13.4l11.053 10.93a3.06 3.06 0 004.278 0l11.053-10.93a9.402 9.402 0 000-13.396zm-1.427 11.989l-11.052 10.93a1.02 1.02 0 01-1.425 0l-11.053-10.93a7.433 7.433 0 01-2.213-5.29c0-1.987.798-3.893 2.213-5.289 2.85-2.796 7.443-2.893 10.409-.221L30 21.2l1.356-1.218c2.966-2.672 7.559-2.575 10.409.221a7.43 7.43 0 010 10.578zm-18.513-9.755h-.005c-2.329 0-4.246 1.917-4.247 4.246 0 .274.226.5.5.5s.5-.226.5-.5a3.263 3.263 0 013.249-3.245h.002c.274 0 .5-.226.5-.5 0-.275-.225-.5-.499-.501z" fill="#666d89"/></svg>